<svg width="109" height="52" viewBox="0 0 109 52" fill="none" xmlns="http://www.w3.org/2000/svg">
<path d="M53.4464 19.98C57.2022 19.98 59.268 22.1886 59.268 26.8647C59.268 31.5409 57.1744 33.7801 53.4464 33.7801C52.0125 33.7801 50.7513 33.3205 50.0608 32.5463V37.6234C50.0608 38.484 49.3731 39.1719 48.5128 39.1719C47.6525 39.1719 46.9648 38.484 46.9648 37.6234V21.7012C46.9648 20.8406 47.6525 20.1527 48.5128 20.1527C49.3731 20.1527 50.0608 20.8406 50.0608 21.7012C50.4924 20.9827 51.8399 19.98 53.4464 19.98ZM53.0455 22.6175C51.0381 22.6175 49.9773 24.0518 49.9773 26.8926C49.9773 29.7055 51.0381 31.1398 53.0455 31.1398C55.0528 31.1398 56.1136 29.7055 56.1136 26.8926C56.1136 24.0518 55.0528 22.6175 53.0455 22.6175Z" fill="#3256ED"/>
<path d="M64.3761 21.7012V28.3854C64.3761 29.7055 64.8355 30.9672 66.957 30.9672C69.0507 30.9672 69.5101 29.7055 69.5101 28.3854V21.7012C69.5101 20.8407 70.1978 20.1527 71.0581 20.1527C71.9184 20.1527 72.6061 20.8407 72.6061 21.7012V28.3854C72.6061 31.1983 71.5453 33.7801 66.957 33.7801C62.3381 33.7801 61.2773 31.1983 61.2773 28.3854V21.7012C61.2773 20.8407 61.965 20.1527 62.8253 20.1527C63.6856 20.1527 64.3761 20.8407 64.3761 21.7012Z" fill="#3256ED"/>
<path d="M78.5726 14.527V30.2487C78.5726 30.594 78.9178 30.7639 79.1182 30.7639C79.9201 30.7639 80.5521 31.3961 80.5521 32.1982C80.5521 33.0003 79.9201 33.6325 79.1182 33.6325C76.8826 33.6325 75.4766 32.3709 75.4766 29.959V14.527C75.4766 13.6664 76.1643 12.9785 77.0246 12.9785C77.8821 12.9785 78.5726 13.6664 78.5726 14.527Z" fill="#3256ED"/>
<path d="M88.9229 19.98C92.6788 19.98 94.7446 22.1886 94.7446 26.8647C94.7446 31.5409 92.6509 33.7801 88.9229 33.7801C87.4891 33.7801 86.2279 33.3205 85.5374 32.5463V37.6234C85.5374 38.484 84.8497 39.1719 83.9894 39.1719C83.1291 39.1719 82.4414 38.484 82.4414 37.6234V21.7012C82.4414 20.8406 83.1291 20.1527 83.9894 20.1527C84.8497 20.1527 85.5374 20.8406 85.5374 21.7012C85.9689 20.9827 87.3165 19.98 88.9229 19.98ZM88.522 22.6175C86.5146 22.6175 85.4539 24.0518 85.4539 26.8926C85.4539 29.7055 86.5146 31.1398 88.522 31.1398C90.5294 31.1398 91.5901 29.7055 91.5901 26.8926C91.5901 24.0518 90.5294 22.6175 88.522 22.6175Z" fill="#3256ED"/>
<path d="M102.719 33.78C98.8458 33.78 96.4375 31.5715 96.4375 26.8954C96.4375 22.1914 98.8458 19.98 102.719 19.98C106.591 19.98 109 22.1886 109 26.8954C109 31.5715 106.591 33.78 102.719 33.78ZM102.719 22.6175C100.653 22.6175 99.5641 24.0518 99.5641 26.8926C99.5641 29.7055 100.653 31.1398 102.719 31.1398C104.784 31.1398 105.873 29.7055 105.873 26.8926C105.873 24.0518 104.784 22.6175 102.719 22.6175Z" fill="#3256ED"/>
<path d="M12.4238 22.5565C12.4238 23.5786 13.2574 24.4122 14.2796 24.4122C15.3017 24.4122 16.1353 23.5786 16.1353 22.5565C16.1353 21.5343 15.3017 20.7008 14.2796 20.7008C13.2574 20.7008 12.4238 21.5343 12.4238 22.5565Z" fill="#3256ED"/>
<path d="M13.0313 52C15.0557 52 16.6931 50.3527 16.6931 48.3282V29.5031C16.6931 28.7786 16.1076 28.1931 15.3832 28.1931C14.6588 28.1931 14.0733 28.7786 14.0733 29.5031V48.3282C14.0733 48.9137 13.5969 49.3802 13.0214 49.3802C12.4359 49.3802 11.9695 48.9038 11.9695 48.3282C11.9695 47.6038 11.384 47.0183 10.6595 47.0183C9.93511 47.0183 9.34961 47.6038 9.34961 48.3282C9.36946 50.3527 11.0168 52 13.0313 52Z" fill="#3256ED"/>
<path d="M26.0815 43.6344C26.0815 42.9099 25.496 42.3244 24.7716 42.3244C24.0471 42.3244 23.4616 42.9099 23.4616 43.6344C23.4616 44.2099 22.9952 44.6763 22.4196 44.6763C21.8441 44.6763 21.3777 44.2099 21.3777 43.6344V29.5031C21.3777 28.7786 20.7922 28.1931 20.0677 28.1931C19.3433 28.1931 18.7578 28.7786 18.7578 29.5031V43.6344C18.7578 45.6489 20.3952 47.2962 22.4196 47.2962C24.4341 47.2962 26.0815 45.6489 26.0815 43.6344Z" fill="#3256ED"/>
<path d="M4.67578 38.9305C4.67578 40.945 6.31319 42.5924 8.33761 42.5924C10.3521 42.5924 11.9994 40.955 11.9895 38.9305V29.4931C11.9895 28.7687 11.404 28.1832 10.6796 28.1832C9.95517 28.1832 9.36967 28.7687 9.36967 29.4931V38.9305C9.36967 39.5061 8.90326 39.9725 8.32769 39.9725C7.75212 39.9725 7.2857 39.5061 7.2857 38.9305C7.2857 38.2061 6.70021 37.6206 5.97578 37.6206C5.26128 37.6305 4.67578 38.2061 4.67578 38.9305Z" fill="#3256ED"/>
<path d="M27.1208 37.8985C29.1353 37.8985 30.7826 36.2611 30.7826 34.2366C30.7826 33.5122 30.1972 32.9267 29.4727 32.9267C28.7483 32.9267 28.1628 33.5122 28.1628 34.2366C28.1628 34.8122 27.6964 35.2786 27.1208 35.2786C26.5452 35.2786 26.0788 34.8122 26.0788 34.2366V29.5031C26.0788 28.7786 25.4933 28.1931 24.7689 28.1931C24.0445 28.1931 23.459 28.7786 23.459 29.5031V34.2366C23.4689 36.2611 25.1063 37.8985 27.1208 37.8985Z" fill="#3256ED"/>
<path d="M4.70382 13.0496V27.1511C4.70382 27.7267 4.22748 28.2031 3.65191 28.2031C3.07634 28.2031 2.60992 27.7267 2.60992 27.1511C2.60992 26.4267 2.02443 25.8412 1.3 25.8412C0.585496 25.8412 0 26.4267 0 27.1511C0 29.1656 1.6374 30.813 3.66183 30.813C5.68626 30.813 7.32366 29.1756 7.32366 27.1511V13.0496C7.32366 7.29389 12.0076 2.61985 17.7634 2.61985C23.5092 2.61985 28.1931 7.29389 28.1931 13.0496V27.1511C28.1931 29.1656 29.8305 30.813 31.855 30.813C33.8695 30.813 35.5168 29.1756 35.5168 27.1511C35.5168 26.4267 34.9313 25.8412 34.2069 25.8412C33.4824 25.8412 32.8969 26.4267 32.8969 27.1511C32.8969 27.7267 32.4305 28.2031 31.855 28.2031C31.2794 28.2031 30.8031 27.7267 30.8031 27.1511V13.0496C30.8031 5.85496 24.9481 0 17.7534 0C10.5588 0 4.70382 5.85496 4.70382 13.0496Z" fill="#3256ED"/>
<path d="M19.3223 22.5565C19.3223 23.5786 20.1559 24.4122 21.178 24.4122C22.2001 24.4122 23.0337 23.5786 23.0337 22.5565C23.0337 21.5343 22.2001 20.7008 21.178 20.7008C20.1559 20.7107 19.3223 21.5343 19.3223 22.5565Z" fill="#3256ED"/>
</svg>
